# xmcd
#
# Track frame offsets:
#	150
#	26039
#	47040
#	68288
#	85518
#	105600
#	127337
#	145223
#	164502
#	193229
#
# Disc length: 2834 seconds
#
# Revision: 19
# Processed by: cddbd v1.5.2PL0 Copyright (c) Steve Scherf et al.
# Submitted via: Jack! The Knife 20 Magnifico
#
DISCID=890b100a
DTITLE=Gamma Ray - Sigh No More
DYEAR=1991
DGENRE=Metal
TTITLE0=Changes
TTITLE1=Rich And Famous
TTITLE2=As Time Goes By
TTITLE3=(We Won't) Stop the War
TTITLE4=Father And Son
TTITLE5=One With The World
TTITLE6=Start Running
TTITLE7=Countdown
TTITLE8=Dream Healer
TTITLE9=The Spirit
EXTD=Tommy Newton
EXTT0=Hansen, Wessel
EXTT1=Kai Hansen
EXTT2=Hansen, Sielck
EXTT3=Hansen, Wessel
EXTT4=Dirk  Schlächter
EXTT5=Hansen, Wessel
EXTT6=Kai Hansen
EXTT7=Kai Hansen
EXTT8=Kai Hansen
EXTT9=Hansen, Wessel
PLAYORDER=
